# xmcd
#
# Track frame offsets:
#	150
#	38522
#	92222
#	155860
#
# Disc length: 2676 seconds
# Revision: 0
# Processed by: cddbd v1.5.2PL0 Copyright (c) Steve Scherf et al.
# Submitted via: dBpowerAMP V12.0
#
DISCID=2a0a7204
DTITLE=Johnny Winter - Remembrance Volume 2 [Disc 2]
DYEAR=2017
DGENRE=Blues
TTITLE0=Gypsy Woman
TTITLE1=Be Careful With A Fool
TTITLE2=Sweet Papa John
TTITLE3=Come On In My Kitchen
EXTD=
EXTT0=
EXTT1=
EXTT2=
EXTT3=
PLAYORDER=
